<svg width="43" height="48" fill="none" xmlns="http://www.w3.org/2000/svg"><g clip-path="url(#clip0)"><path d="M32.386 28.95c.217 6.62-3.726 11.43-5.61 12.623-.423.267-1.365.864-2.33.576 0 0-.963-.288-1.635-1.76-.021-.053-.086-.202-.021-.277.065-.074.238 0 .303-.085.043-.064-.022-.192-.033-.213-.39-.704-.411-2.303-1.473-2.644-.845-.267-1.711.448-1.776.5a2.378 2.378 0 00-.693 1.078c-.325.927 0 1.407-.13 2.11-.206 1.078-1.31 1.728-1.787 1.995-2.503 1.396-6.164-.523-7.398-1.173-4.138-2.186-6.066-5.672-6.51-6.504-2.329-4.425-1.777-8.594-1.592-9.83.216-1.44.974-6.569 5.264-9.874 4.906-3.785 12.878-3.55 18.38.192 6.619 4.5 6.998 12.176 7.041 13.285z" fill="#fff"/><path d="M32.159 27.958c.097.991.108 1.994.032 2.985a16.872 16.872 0 01-.552 2.932l-.108.363c-.044.117-.065.245-.109.352l-.249.703-.292.693c-.098.224-.217.448-.325.672a14.856 14.856 0 01-1.614 2.538 3.106 3.106 0 01-.238.288l-.25.287a25.48 25.48 0 01-.52.555 10.15 10.15 0 01-1.148.991 4.53 4.53 0 01-.66.405 2.818 2.818 0 01-.748.267c-.13.021-.27.032-.411.032a1.363 1.363 0 01-.412-.096c-.26-.117-.466-.298-.65-.48-.357-.383-.639-.789-.953-1.172a7.834 7.834 0 00-1.007-1.056c-.184-.16-.369-.288-.574-.341a1.089 1.089 0 00-.64 0 3.01 3.01 0 00-.628.288c-.205.128-.4.266-.574.426-.173.15-.335.33-.498.512a12.46 12.46 0 01-.498.565c-.173.192-.347.373-.52.554a8.43 8.43 0 01-.542.534c-.184.18-.379.351-.617.5a2.39 2.39 0 01-.758.32c-.542.128-1.094.086-1.603 0a14.581 14.581 0 01-2.936-.895 20.58 20.58 0 01-1.386-.661 13.382 13.382 0 01-.66-.395l-.629-.416a32.526 32.526 0 01-1.246-.874c-.4-.309-.801-.629-1.18-.97a13.345 13.345 0 01-2.026-2.303 12.733 12.733 0 01-1.408-2.719c-.054-.117-.086-.245-.13-.362a4.721 4.721 0 01-.119-.363 18.65 18.65 0 01-.206-.736c-.13-.49-.216-.991-.281-1.503-.141-1.013-.152-2.026-.109-3.028.033-1.002.152-2.026.358-3.018a11.48 11.48 0 01.39-1.482c.162-.48.335-.96.541-1.428.401-.939.878-1.845 1.44-2.698a14.283 14.283 0 011.961-2.388l.282-.267c.097-.085.184-.18.292-.255.206-.16.401-.331.618-.491.422-.31.877-.586 1.343-.832.931-.48 1.939-.82 2.957-1.034l.195-.043.195-.031.39-.064c.26-.033.52-.075.78-.086.52-.053 1.04-.064 1.56-.064 2.079.032 4.126.459 6.043 1.184.477.181.954.384 1.409.607.454.224.91.47 1.353.725.109.064.217.14.325.203.109.064.217.139.325.213.217.15.423.299.618.448.4.31.79.64 1.17.981a18.204 18.204 0 013.715 4.745c.476.885.866 1.812 1.17 2.761.249.95.454 1.93.552 2.922zm-.087.01a14.07 14.07 0 00-.66-2.89 14.45 14.45 0 00-1.224-2.697 16.697 16.697 0 00-1.723-2.42 19.387 19.387 0 00-2.112-2.09c-.379-.32-.769-.618-1.17-.906a20.515 20.515 0 00-.617-.405c-.098-.064-.217-.128-.314-.181a19.171 19.171 0 00-1.657-.832 19.062 19.062 0 00-4.246-1.269 17.131 17.131 0 00-2.936-.256c-.487 0-.974.021-1.462.075-.238.021-.487.064-.726.096l-.357.064-.184.032-.173.042a10.44 10.44 0 00-1.398.395c-.455.16-.899.352-1.332.565-.422.224-.834.47-1.224.746-.195.139-.379.299-.563.448-.098.075-.184.16-.271.235l-.27.245c-.705.661-1.311 1.418-1.853 2.228a16.769 16.769 0 00-1.408 2.549c-.206.447-.38.895-.542 1.354-.162.458-.281.917-.39 1.396a18.35 18.35 0 00-.379 2.89c-.054.98-.054 1.951.065 2.91a12.713 12.713 0 00.434 2.133c.032.117.075.235.108.341.043.118.076.235.12.342.335.906.768 1.78 1.31 2.59.541.81 1.191 1.546 1.906 2.218.357.33.737.65 1.127.95.39.298.801.586 1.213.873l.617.416c.195.139.412.256.628.384.433.235.878.459 1.332.661.91.395 1.864.704 2.817.896.476.085.953.128 1.397.021a1.92 1.92 0 00.325-.107c.108-.042.206-.096.303-.149.195-.117.369-.277.553-.437.173-.17.357-.341.53-.522.174-.182.347-.352.52-.534l.498-.554a4.45 4.45 0 01.553-.554c.206-.171.422-.32.639-.459a2.78 2.78 0 01.747-.33c.141-.032.282-.054.423-.054.151 0 .292.022.433.075.282.085.52.256.704.426.4.33.737.725 1.05 1.12.315.394.596.81.91 1.173.163.17.336.33.542.426.098.043.206.075.314.085.109.011.228 0 .336-.01.466-.075.9-.32 1.31-.597a9.48 9.48 0 001.149-.939c.173-.17.357-.351.52-.533l.249-.277c.087-.096.162-.181.238-.288a14.768 14.768 0 001.636-2.484c.108-.224.227-.437.335-.661l.304-.682.26-.693c.086-.235.151-.47.227-.704.282-.95.477-1.93.563-2.91a17.024 17.024 0 00-.054-2.976z" fill="#F5B3B3" fill-opacity=".08"/><path d="M20.614 31.442c.726-1.016.192-2.617-1.193-3.575-1.385-.959-3.096-.912-3.822.105-.726 1.016-.192 2.617 1.193 3.576 1.385.958 3.096.911 3.822-.105z" fill="#F5B3B3"/><path d="M17.85 20.196c.878-.139 1.376-.981 1.517-1.216.38-.64.4-1.237.4-1.418.012-.82-.357-1.375-.53-1.631-.173-.256-.52-.757-1.191-1.045-.26-.107-.824-.341-1.387-.139-.52.181-.476.523-1.105.992-.812.608-1.278.33-1.56.81-.346.597.076 1.503.369 1.813.032.032.087.096.173.149.27.15.607.032 1.473.363a.37.37 0 00.087.032c.476.17.758 0 .855.117.141.16-.303.554-.194.863.119.288.682.374 1.094.31z" fill="#EF0A88"/><path d="M25.627 25.218c-.671.298-.964 1.77-.379 2.825.434.789 1.311 1.237 2.156 1.237 1.213-.01 1.906-.928 2.144-1.248.499-.66.921-1.748.553-2.122-.282-.277-.737.128-1.668.128-1.56-.01-2.123-1.13-2.806-.82z" fill="#900FF4"/><path d="M8.07 22.285c.249.544-.044 1.045.162 1.43.358.65 1.55-.16 1.852-.363.574-.395 1.398-.939 1.636-2.015.162-.758-.054-1.376-.098-1.472-.292-.789-.931-.842-2.144-.927-1.267-.096-1.722.245-1.993.543-.12.139-.38.437-.455.875-.098.533.14.948.238 1.12.314.553.585.34.802.81z" fill="#FFDE63"/><path d="M6.12 27.265c-.672.298-.964 1.77-.38 2.825.434.79 1.312 1.237 2.156 1.237 1.214-.01 1.907-.928 2.145-1.248.498-.66.92-1.748.552-2.121-.281-.277-.736.128-1.668.128-1.56 0-2.123-1.12-2.805-.821z" fill="#4BA3DD"/><path d="M10.756 35.059c-.444.074-.726-.235-1.04-.16-.542.138-.27 1.194-.206 1.46.13.512.314 1.237 1.008 1.621.487.277.974.224 1.05.224.13-.01.239-.064.412-.139.715-.309 1.072-.458 1.419-.81.195-.192.715-.714.725-1.44 0-.127 0-.564-.27-.852-.304-.31-.52-.032-1.473-.299-.098-.032-.499-.138-.845-.042-.477.117-.401.373-.78.437z" fill="#72AC45"/><path d="M26.97 36.903c.726-.128 1.16-.863 1.279-1.055a2.476 2.476 0 00.357-1.205c.022-.693-.27-1.162-.4-1.376-.141-.213-.412-.64-.965-.863-.216-.086-.671-.277-1.148-.096-.433.17-.4.448-.942.864-.693.533-1.072.309-1.31.725-.293.511.032 1.268.27 1.524a.32.32 0 00.14.117c.217.118.5.011 1.214.278.01.01.043.01.065.021.39.128.628-.01.715.085.108.139-.27.48-.173.736.097.256.563.31.899.245z" fill="#4656A8"/><path d="M27.534 14.331l-2.177-.778c-.163.01-.325.032-.488.043-2.946 5.576-5.892 11.163-8.838 16.74.108.17.26.351.444.543.368.373.747.597 1.029.746 3.433-5.661 6.878-11.323 10.311-16.984-.097-.096-.184-.203-.281-.31v0z" fill="#fff" stroke="#F5B3B3" stroke-opacity=".01" stroke-miterlimit="10"/><path d="M10.745 42.213a1.199 1.199 0 01-.682-.043 1.144 1.144 0 01-.52-.394c-1.04 1.951-2.08 3.913-3.13 5.864.01.032.075.224.292.32.249.106.466-.032.487-.043 1.192-1.898 2.372-3.806 3.553-5.704z" fill="#FCFCFC"/><path d="M25.682 13.265l1.95.64c.465.15 1.028-.053 1.256-.448l1.538-2.761c.227-.405.021-.853-.444-1.013l-1.95-.64c-.466-.15-1.029.053-1.256.448l-1.538 2.761c-.217.405-.022.864.444 1.013z" fill="#fff"/><path d="M27.837 3.99c-.834.745-1.592 2.228-1.094 3.422.672 1.62 3.531 2.367 5.35 1.418 2.07-1.077 1.853-3.839 1.788-4.585-.184-2.292-1.7-4.307-2.459-4.244-.53.043-.086 1.29-1.386 2.56-.813.8-1.354.671-2.199 1.428zm5.015 15.96l-1.7-1.535c-.152-.043-.315-.096-.466-.139-4.885 3.999-9.77 8.008-14.655 12.006a2.6 2.6 0 00.346.576c.314.405.672.64.921.778 5.232-3.764 10.463-7.517 15.684-11.28-.043-.14-.087-.267-.13-.406z" fill="#fff"/><path d="M6.13 39.516a1.11 1.11 0 01-.617-.299 1.122 1.122 0 01-.325-.554C3.455 40.07 1.733 41.477 0 42.873c0 .032-.01.245.152.405.184.192.444.15.466.15 1.84-1.301 3.671-2.613 5.513-3.913z" fill="#FCFCFC"/><path d="M31.563 18.266l1.55 1.333c.367.32.963.351 1.331.064l2.492-1.962c.368-.288.357-.779-.011-1.099l-1.55-1.332c-.367-.32-.963-.352-1.331-.064l-2.492 1.962c-.368.287-.368.778.011 1.098z" fill="#fff"/><path d="M37.185 10.536c-1.062.362-2.34 1.45-2.35 2.74-.023 1.748 2.317 3.518 4.375 3.348 2.329-.203 3.217-2.836 3.455-3.55.737-2.187.13-4.617-.595-4.841-.51-.16-.585 1.162-2.286 1.834-1.072.415-1.516.095-2.6.469z" fill="#fff"/></g><defs><clipPath id="clip0"><path fill="#fff" d="M0 0h43v48H0z"/></clipPath></defs></svg>