<svg width="43" height="48" viewBox="0 0 43 48" fill="none" xmlns="http://www.w3.org/2000/svg">
<g clip-path="url(#clip0)">
<path d="M32.3863 28.9493C32.6029 35.5705 28.6602 40.3791 26.7755 41.5733C26.3531 41.8398 25.4108 42.4369 24.4468 42.149C24.4468 42.149 23.4828 41.8611 22.8112 40.3898C22.7896 40.3365 22.7246 40.1872 22.7896 40.1125C22.8545 40.0379 23.0278 40.1125 23.0928 40.0272C23.1362 39.9633 23.0712 39.8353 23.0603 39.814C22.6704 39.1103 22.6487 37.511 21.5873 37.1698C20.7424 36.9032 19.8759 37.6176 19.8109 37.6709C19.3776 38.0441 19.2043 38.4919 19.1177 38.7478C18.7927 39.6754 19.1177 40.1552 18.9877 40.8589C18.7819 41.9358 17.6771 42.5862 17.2005 42.8527C14.6984 44.2495 11.0374 42.3303 9.80259 41.6799C5.66496 39.4941 3.73695 36.0076 3.29286 35.176C0.964088 30.7512 1.51649 26.5823 1.70063 25.3454C1.91726 23.9061 2.67546 18.7775 6.96474 15.4723C11.8714 11.6872 19.8434 11.9218 25.3458 15.6642C31.9638 20.1636 32.3429 27.8404 32.3863 28.9493V28.9493Z" fill="white"/>
<path d="M32.1589 27.9577C32.2564 28.9493 32.2672 29.9515 32.1914 30.9431C32.0939 31.9347 31.9098 32.9156 31.639 33.8752L31.5307 34.2377C31.4874 34.355 31.4657 34.4829 31.4224 34.5895L31.1732 35.2933L30.8808 35.9863C30.7833 36.2102 30.6642 36.4341 30.5558 36.658C30.1009 37.5536 29.5702 38.4066 28.942 39.1956C28.8661 39.3022 28.7903 39.3875 28.7037 39.4835L28.4545 39.7714C28.2812 39.9633 28.1079 40.1445 27.9346 40.3258C27.5772 40.6776 27.1981 41.0188 26.7865 41.3174C26.5807 41.4666 26.3641 41.6053 26.1258 41.7225C25.8983 41.8398 25.6492 41.9358 25.3784 41.9891C25.2484 42.0104 25.1076 42.0211 24.9668 42.0211C24.826 42.0104 24.6852 41.9784 24.5552 41.9251C24.2952 41.8078 24.0894 41.6266 23.9053 41.4453C23.5479 41.0615 23.2662 40.6563 22.9521 40.2725C22.638 39.8886 22.3131 39.5261 21.9448 39.2169C21.7607 39.057 21.5765 38.9291 21.3707 38.8757C21.1649 38.8118 20.9483 38.8118 20.7317 38.8757C20.515 38.9397 20.3092 39.0463 20.1035 39.1636C19.8977 39.2916 19.7027 39.4302 19.5294 39.5901C19.3561 39.7394 19.1936 39.9206 19.0311 40.1019C18.8687 40.2938 18.7062 40.4857 18.5329 40.667C18.3596 40.8589 18.1863 41.0402 18.013 41.2214C17.8397 41.4027 17.6664 41.5839 17.4714 41.7545C17.2873 41.9358 17.0923 42.1064 16.854 42.2556C16.7349 42.3303 16.6157 42.3943 16.4857 42.4476C16.3558 42.5009 16.2258 42.5435 16.0958 42.5755C15.5542 42.7035 15.0018 42.6608 14.4927 42.5755C13.4746 42.3836 12.4997 42.0744 11.5574 41.6799C11.0808 41.4773 10.6259 41.2534 10.171 41.0188C9.94351 40.8909 9.72688 40.7629 9.51025 40.6243L8.88202 40.2085C8.45959 39.9313 8.048 39.6328 7.6364 39.3342C7.23563 39.025 6.83487 38.7051 6.45577 38.364C5.69756 37.6816 5.01518 36.9032 4.43028 36.0609C3.85621 35.2186 3.37962 34.3017 3.02218 33.3421C2.96802 33.2248 2.93553 33.0968 2.8922 32.9796C2.84888 32.8623 2.80555 32.7343 2.77306 32.617C2.69724 32.3718 2.63225 32.1266 2.56726 31.8814C2.43728 31.3909 2.35063 30.8898 2.28564 30.378C2.14483 29.3651 2.134 28.3522 2.17733 27.3499C2.20982 26.3477 2.32897 25.3241 2.53476 24.3325C2.63225 23.8314 2.76223 23.3303 2.9247 22.8505C3.08717 22.3707 3.26047 21.8909 3.46627 21.4218C3.86704 20.4835 4.34362 19.5772 4.90686 18.7242C5.4701 17.8713 6.11999 17.0609 6.86736 16.3359L7.14898 16.0694C7.24646 15.9841 7.33312 15.8881 7.44143 15.8135C7.64723 15.6535 7.8422 15.4829 8.05883 15.323C8.48126 15.0138 8.93618 14.7366 9.40193 14.4914C10.3334 14.0116 11.3408 13.6704 12.3589 13.4571L12.5539 13.4145L12.7489 13.3825C12.8788 13.3612 13.0088 13.3398 13.1388 13.3185C13.3988 13.2865 13.6587 13.2439 13.9187 13.2332C14.4386 13.1799 14.9585 13.1693 15.4784 13.1693C17.558 13.2012 19.6052 13.6277 21.5224 14.3528C21.999 14.534 22.4755 14.7366 22.9305 14.9605C23.3854 15.1844 23.8403 15.4296 24.2844 15.6855C24.3927 15.7495 24.501 15.8241 24.6094 15.8881C24.7177 15.9521 24.826 16.0267 24.9343 16.1013C25.1509 16.2506 25.3567 16.3999 25.5517 16.5492C25.9525 16.8584 26.3424 17.1889 26.7215 17.5301C28.2162 18.9055 29.4835 20.5048 30.4367 22.2747C30.9133 23.1597 31.3032 24.0873 31.6065 25.0362C31.8556 25.9852 32.0614 26.9661 32.1589 27.9577V27.9577ZM32.0723 27.9683C31.9531 26.9874 31.7365 26.0172 31.4115 25.0789C31.0974 24.1406 30.6858 23.2343 30.1876 22.3814C29.6893 21.5177 29.1044 20.7181 28.4654 19.9611C27.8155 19.2147 27.1114 18.511 26.3532 17.8713C25.9741 17.5514 25.5842 17.2529 25.1834 16.965C24.9776 16.8264 24.7718 16.6878 24.566 16.5598C24.4685 16.4958 24.3494 16.4319 24.2519 16.3786C24.1436 16.3146 24.0353 16.2506 23.927 16.1973C23.4937 15.9627 23.0496 15.7495 22.5947 15.5469C22.1398 15.355 21.674 15.1737 21.2083 15.0138C20.2768 14.6939 19.3127 14.4487 18.3487 14.2781C17.8613 14.1928 17.3739 14.1288 16.8865 14.0862C16.3991 14.0435 15.9008 14.0222 15.4134 14.0222C14.926 14.0222 14.4386 14.0435 13.9512 14.0969C13.7129 14.1182 13.4637 14.1608 13.2255 14.1928C13.1063 14.2141 12.9872 14.2355 12.868 14.2568L12.6839 14.2888L12.5106 14.3314C12.034 14.4274 11.5682 14.566 11.1133 14.7259C10.6584 14.8859 10.2143 15.0778 9.78104 15.291C9.35861 15.5149 8.94701 15.7602 8.55708 16.0374C8.36211 16.176 8.17797 16.3359 7.99384 16.4852C7.89635 16.5598 7.8097 16.6451 7.72305 16.7198L7.45226 16.965C6.74822 17.626 6.14165 18.3831 5.60008 19.1934C5.0585 20.0037 4.58192 20.8567 4.19198 21.7416C3.98619 22.1894 3.81288 22.6373 3.65041 23.0957C3.48794 23.5542 3.36879 24.0127 3.26047 24.4925C3.05468 25.4414 2.93553 26.401 2.88137 27.3819C2.82721 28.3628 2.82721 29.3331 2.94636 30.2927C3.00052 30.7725 3.08717 31.2523 3.19549 31.7214C3.24964 31.956 3.31463 32.1906 3.37962 32.4251C3.41212 32.5424 3.45544 32.6597 3.48794 32.7663C3.53126 32.8836 3.56376 33.0009 3.60708 33.1075C3.94286 34.0138 4.37612 34.8881 4.91769 35.6984C5.45927 36.5087 6.10916 37.2444 6.82404 37.9161C7.18148 38.2467 7.56058 38.5665 7.95051 38.8651C8.34045 39.1636 8.75204 39.4515 9.16364 39.7394L9.78104 40.1552C9.976 40.2938 10.1926 40.4111 10.4093 40.539C10.8425 40.7736 11.2866 40.9975 11.7415 41.2001C12.6514 41.5946 13.6046 41.9038 14.5577 42.0957C15.0343 42.181 15.5109 42.2237 15.955 42.117C16.0633 42.0957 16.1716 42.0531 16.2799 42.0104C16.3882 41.9678 16.4857 41.9145 16.5832 41.8611C16.7782 41.7439 16.9515 41.5839 17.1356 41.424C17.3089 41.2534 17.4931 41.0828 17.6664 40.9016C17.8397 40.7203 18.013 40.5497 18.1863 40.3684C18.3487 40.1872 18.5112 40.0059 18.6845 39.814C18.847 39.6221 19.0311 39.4302 19.2369 39.2596C19.4427 39.089 19.6594 38.9397 19.876 38.8011C20.1034 38.6625 20.3417 38.5452 20.6234 38.4706C20.7642 38.4386 20.905 38.4173 21.0458 38.4173C21.1974 38.4173 21.3382 38.4386 21.479 38.4919C21.7607 38.5772 21.999 38.7478 22.1831 38.9184C22.5839 39.2489 22.9196 39.6434 23.2338 40.0379C23.5479 40.4324 23.8295 40.8482 24.1436 41.2108C24.3061 41.3813 24.4794 41.5413 24.6852 41.6372C24.7827 41.6799 24.891 41.7119 24.9993 41.7225C25.1076 41.7332 25.2267 41.7225 25.3351 41.7119C25.8008 41.6372 26.2341 41.392 26.6457 41.1148C27.0573 40.8376 27.4255 40.5177 27.7938 40.1765C27.9671 40.0059 28.1512 39.8247 28.3137 39.6434L28.5628 39.3662C28.6495 39.2702 28.7253 39.1849 28.8011 39.0783C29.4294 38.3106 29.9709 37.479 30.4367 36.594C30.545 36.3701 30.6642 36.1569 30.7725 35.933L31.0758 35.2506L31.3357 34.5576C31.4224 34.323 31.4874 34.0884 31.5632 33.8539C31.8448 32.9049 32.0398 31.924 32.1264 30.9431C32.1914 29.9408 32.1806 28.9493 32.0723 27.9683V27.9683Z" fill="#F5B3B3" fill-opacity="0.080402"/>
<path d="M20.6144 31.4425C21.3403 30.426 20.806 28.8251 19.421 27.8667C18.036 26.9083 16.3248 26.9554 15.5989 27.9719C14.873 28.9884 15.4073 30.5893 16.7923 31.5477C18.1773 32.5061 19.8885 32.459 20.6144 31.4425Z" fill="#F5B3B3"/>
<path d="M17.8506 20.1956C18.7279 20.057 19.2262 19.2147 19.367 18.9801C19.7461 18.3404 19.7677 17.7433 19.7677 17.5621C19.7786 16.7411 19.4103 16.1866 19.237 15.9307C19.0637 15.6749 18.7171 15.1737 18.0455 14.8859C17.7856 14.7792 17.2223 14.5447 16.6591 14.7472C16.1392 14.9285 16.1825 15.2697 15.5543 15.7388C14.7419 16.3466 14.2762 16.0694 13.9945 16.5492C13.6479 17.1462 14.0704 18.0525 14.3628 18.3617C14.3953 18.3937 14.4495 18.4577 14.5361 18.511C14.8069 18.6603 15.1427 18.543 16.0092 18.8735C16.0309 18.8842 16.0525 18.8948 16.0959 18.9055C16.5724 19.0761 16.8541 18.9055 16.9515 19.0228C17.0923 19.1827 16.6483 19.5772 16.7566 19.8864C16.8757 20.1743 17.439 20.2596 17.8506 20.1956V20.1956Z" fill="#EF0A88"/>
<path d="M25.6274 25.2175C24.9559 25.516 24.6634 26.9874 25.2483 28.043C25.6816 28.832 26.559 29.2798 27.4038 29.2798C28.6169 29.2691 29.3102 28.3522 29.5484 28.0323C30.0467 27.3713 30.4691 26.2837 30.1009 25.9105C29.8192 25.6333 29.3643 26.0385 28.4328 26.0385C26.8731 26.0278 26.3098 24.9083 25.6274 25.2175V25.2175Z" fill="#900FF4"/>
<path d="M8.06971 22.2854C8.31883 22.8292 8.02638 23.3303 8.23218 23.7141C8.58962 24.3645 9.78109 23.5542 10.0844 23.3516C10.6584 22.9571 11.4816 22.4134 11.7199 21.3365C11.8824 20.5795 11.6658 19.9611 11.6224 19.8651C11.33 19.0761 10.6909 19.0228 9.4778 18.9375C8.21052 18.8415 7.75559 19.1827 7.48481 19.4813C7.36566 19.6199 7.1057 19.9184 7.02988 20.3556C6.9324 20.8887 7.17069 21.3045 7.26818 21.4751C7.58229 22.0295 7.85308 21.8163 8.06971 22.2854V22.2854Z" fill="#FFDE63"/>
<path d="M6.12001 27.2647C5.44846 27.5632 5.15601 29.0346 5.74091 30.0901C6.17417 30.8791 7.05152 31.3269 7.89638 31.3269C9.1095 31.3163 9.80272 30.3993 10.041 30.0795C10.5393 29.4184 10.9617 28.3309 10.5934 27.9577C10.3118 27.6805 9.85688 28.0857 8.92537 28.0857C7.36563 28.0857 6.80239 26.9661 6.12001 27.2647V27.2647Z" fill="#4BA3DD"/>
<path d="M10.7558 35.0587C10.3118 35.1333 10.0301 34.8241 9.71602 34.8988C9.17445 35.0374 9.44523 36.0929 9.51022 36.3595C9.6402 36.8713 9.82433 37.5963 10.5175 37.9801C11.005 38.2574 11.4924 38.204 11.5682 38.204C11.6982 38.1934 11.8065 38.1401 11.9798 38.0654C12.6947 37.7562 13.0521 37.607 13.3987 37.2551C13.5937 37.0632 14.1136 36.5407 14.1244 35.8157C14.1244 35.6878 14.1244 35.2506 13.8536 34.9627C13.5504 34.6535 13.3337 34.9308 12.3806 34.6642C12.2831 34.6322 11.8823 34.5256 11.5357 34.6216C11.0591 34.7388 11.1349 34.9947 10.7558 35.0587Z" fill="#72AC45"/>
<path d="M26.9706 36.9033C27.6963 36.7753 28.1296 36.0396 28.2487 35.8477C28.5737 35.3039 28.6062 34.7922 28.6062 34.6429C28.6278 33.9498 28.3354 33.4807 28.2054 33.2675C28.0646 33.0542 27.7938 32.6277 27.2414 32.4038C27.0248 32.3185 26.5698 32.1266 26.0932 32.3079C25.66 32.4785 25.6925 32.7557 25.1509 33.1715C24.4577 33.7046 24.0786 33.4807 23.8403 33.8965C23.5478 34.4083 23.8728 35.1653 24.1111 35.4212C24.1327 35.4532 24.1761 35.5065 24.2519 35.5385C24.4685 35.6558 24.7501 35.5492 25.465 35.8157C25.4758 35.8264 25.5083 35.8264 25.53 35.8371C25.9199 35.965 26.1582 35.8264 26.2449 35.9224C26.3532 36.061 25.9741 36.4022 26.0716 36.658C26.1691 36.9139 26.6348 36.9672 26.9706 36.9033V36.9033Z" fill="#4656A8"/>
<path d="M27.5337 14.3314L25.3566 13.5531C25.1941 13.5638 25.0317 13.5851 24.8692 13.5957C21.923 19.1721 18.9769 24.759 16.0307 30.3353C16.139 30.5059 16.2906 30.6872 16.4748 30.8791C16.843 31.2523 17.2222 31.4762 17.5038 31.6255C20.9374 25.9639 24.3818 20.3022 27.8154 14.6406C27.7179 14.5447 27.6312 14.4381 27.5337 14.3314V14.3314Z" fill="white" stroke="#F5B3B3" stroke-opacity="0.0100503" stroke-miterlimit="10"/>
<path d="M10.745 42.213C10.6475 42.2343 10.3767 42.2876 10.0626 42.1703C9.77013 42.0637 9.60766 41.8611 9.54267 41.7758C8.50285 43.727 7.46302 45.6889 6.41237 47.64C6.4232 47.672 6.48819 47.8639 6.70482 47.9599C6.95394 48.0665 7.17057 47.9279 7.19224 47.9173C8.3837 46.0194 9.56434 44.1109 10.745 42.213V42.213Z" fill="#FCFCFC"/>
<path d="M25.6816 13.2652L27.6312 13.905C28.097 14.0542 28.6602 13.8517 28.8877 13.4572L30.4258 10.6956C30.6532 10.2905 30.4474 9.84267 29.9817 9.68274L28.032 9.04301C27.5663 8.89374 27.003 9.09632 26.7755 9.49082L25.2375 12.2523C25.0208 12.6575 25.2158 13.116 25.6816 13.2652Z" fill="white"/>
<path d="M27.8371 3.98913C27.003 4.73549 26.2448 6.21753 26.7431 7.41169C27.4146 9.03234 30.2742 9.77869 32.0939 8.82976C34.1627 7.75288 33.9461 4.99138 33.8811 4.24503C33.6969 1.95266 32.1805 -0.0624901 31.4223 0.00148293C30.8916 0.0441316 31.3357 1.29161 30.0359 2.5604C29.2235 3.36007 28.6819 3.23212 27.8371 3.98913Z" fill="white"/>
<path d="M32.852 19.9504L31.1515 18.415C30.9998 18.3724 30.8373 18.319 30.6857 18.2764C25.8007 22.2747 20.9157 26.2837 16.0307 30.282C16.1065 30.4526 16.2148 30.6552 16.3773 30.8578C16.6914 31.2629 17.0488 31.4975 17.298 31.6361C22.5296 27.8723 27.7612 24.1193 32.982 20.3555C32.9386 20.2169 32.8953 20.089 32.852 19.9504V19.9504Z" fill="white"/>
<path d="M6.13078 39.5155C6.0333 39.5048 5.76251 39.4515 5.51338 39.217C5.28592 39.0037 5.2101 38.7585 5.18844 38.6625C3.4554 40.0699 1.73319 41.4773 0.000149917 42.8741C0.000149917 42.9061 -0.0106816 43.1193 0.151791 43.2793C0.335926 43.4712 0.595882 43.4285 0.617545 43.4285C2.4589 42.1277 4.28942 40.8163 6.13078 39.5155V39.5155Z" fill="#FCFCFC"/>
<path d="M31.5632 18.2658L33.1121 19.5985C33.4803 19.9184 34.0761 19.9504 34.4443 19.6625L36.9356 17.7007C37.3039 17.4128 37.293 16.9223 36.9248 16.6025L35.3759 15.2697C35.0076 14.9498 34.4119 14.9178 34.0436 15.2057L31.5523 17.1676C31.1841 17.4554 31.1841 17.9459 31.5632 18.2658Z" fill="white"/>
<path d="M37.1846 10.5357C36.1231 10.8982 34.845 11.9857 34.8342 13.2759C34.8125 15.0245 37.1521 16.7944 39.2101 16.6238C41.5389 16.4212 42.427 13.7876 42.6653 13.0733C43.4019 10.8875 42.7953 8.45657 42.0696 8.23266C41.5605 8.07273 41.4847 9.39484 39.7842 10.0666C38.7118 10.4824 38.2677 10.1625 37.1846 10.5357V10.5357Z" fill="white"/>
</g>
<defs>
<clipPath id="clip0">
<rect width="43" height="48" fill="white"/>
</clipPath>
</defs>
</svg>
